{
  "accessors": [
    {
      "bufferView": 2,
      "componentType": 5126,
      "count": 1480,
      "max": [
        17.097267150878906,
        28.91631317138672,
        13.434785842895508
      ],
      "min": [
        -16.870849609375,
        -0.007248133420944214,
        -13.376724243164063
      ],
      "type": "VEC3"
    },
    {
      "bufferView": 2,
      "byteOffset": 17760,
      "componentType": 5126,
      "count": 1480,
      "max": [
        1.0,
        1.0,
        1.0
      ],
      "min": [
        -1.0,
        -1.0,
        -1.0
      ],
      "type": "VEC3"
    },
    {
      "bufferView": 3,
      "componentType": 5126,
      "count": 1480,
      "max": [
        1.0,
        1.0,
        0.9998960494995117,
        1.0
      ],
      "min": [
        -1.0,
        -1.0,
        -1.0,
        -1.0
      ],
      "type": "VEC4"
    },
    {
      "bufferView": 1,
      "componentType": 5126,
      "count": 1480,
      "max": [
        0.9870455861091614,
        0.9846582412719727
      ],
      "min": [
        0.0,
        0.0
      ],
      "type": "VEC2"
    },
    {
      "bufferView": 0,
      "componentType": 5125,
      "count": 3582,
      "type": "SCALAR"
    },
    {
      "bufferView": 2,
      "byteOffset": 35520,
      "componentType": 5126,
      "count": 1098,
      "max": [
        17.424131393432617,
        30.020084381103516,
        13.66685962677002
      ],
      "min": [
        -17.110858917236328,
        5.293422698974609,
        -13.549306869506836
      ],
      "type": "VEC3"
    },
    {
      "bufferView": 2,
      "byteOffset": 48696,
      "componentType": 5126,
      "count": 1098,
      "max": [
        1.0,
        1.0,
        1.0
      ],
      "min": [
        -1.0,
        -1.0,
        -1.0
      ],
      "type": "VEC3"
    },
    {
      "bufferView": 3,
      "byteOffset": 23680,
      "componentType": 5126,
      "count": 1098,
      "max": [
        1.0,
        1.0,
        1.0,
        1.0
      ],
      "min": [
        -1.0,
        -1.0,
        -1.0,
        -1.0
      ],
      "type": "VEC4"
    },
    {
      "bufferView": 1,
      "byteOffset": 11840,
      "componentType": 5126,
      "count": 1098,
      "max": [
        0.9862576127052307,
        0.9854032397270203
      ],
      "min": [
        0.0,
        0.0
      ],
      "type": "VEC2"
    },
    {
      "bufferView": 0,
      "byteOffset": 14328,
      "componentType": 5125,
      "count": 2544,
      "type": "SCALAR"
    },
    {
      "bufferView": 2,
      "byteOffset": 61872,
      "componentType": 5126,
      "count": 712,
      "max": [
        9.243925094604492,
        22.857221603393555,
        11.640175819396973
      ],
      "min": [
        -9.271011352539063,
        -0.16215237975120544,
        -11.544650077819824
      ],
      "type": "VEC3"
    },
    {
      "bufferView": 2,
      "byteOffset": 70416,
      "componentType": 5126,
      "count": 712,
      "max": [
        1.0,
        1.0,
        1.0
      ],
      "min": [
        -1.0,
        -1.0,
        -0.9999197125434875
      ],
      "type": "VEC3"
    },
    {
      "bufferView": 3,
      "byteOffset": 41248,
      "componentType": 5126,
      "count": 712,
      "max": [
        1.0,
        1.0,
        1.0,
        1.0
      ],
      "min": [
        -1.0,
        -1.0,
        -0.9980930089950562,
        -1.0
      ],
      "type": "VEC4"
    },
    {
      "bufferView": 1,
      "byteOffset": 20624,
      "componentType": 5126,
      "count": 712,
      "max": [
        0.9464197158813477,
        0.7706794738769531
      ],
      "min": [
        0.0,
        0.0
      ],
      "type": "VEC2"
    },
    {
      "bufferView": 0,
      "byteOffset": 24504,
      "componentType": 5125,
      "count": 1752,
      "type": "SCALAR"
    }
  ],
  "asset": {
    "extras": {
      "author": "Olli_one (https://sketchfab.com/Olli_one)",
      "license": "CC-BY-4.0 (http://creativecommons.org/licenses/by/4.0/)",
      "source": "https://sketchfab.com/3d-models/suitcases-998cccab49ed496586994d9f4774daa0",
      "title": "Suitcases"
    },
    "generator": "Sketchfab-12.65.0",
    "version": "2.0"
  },
  "bufferViews": [
    {
      "buffer": 0,
      "byteLength": 31512,
      "name": "floatBufferViews",
      "target": 34963
    },
    {
      "buffer": 0,
      "byteLength": 26320,
      "byteOffset": 31512,
      "byteStride": 8,
      "name": "floatBufferViews",
      "target": 34962
    },
    {
      "buffer": 0,
      "byteLength": 78960,
      "byteOffset": 57832,
      "byteStride": 12,
      "name": "floatBufferViews",
      "target": 34962
    },
    {
      "buffer": 0,
      "byteLength": 52640,
      "byteOffset": 136792,
      "byteStride": 16,
      "name": "floatBufferViews",
      "target": 34962
    }
  ],
  "buffers": [
    {
      "byteLength": 189432,
      "uri": "scene.bin"
    }
  ],
  "images": [
    {
      "uri": "textures/phong1_baseColor.png"
    },
    {
      "uri": "textures/phong1_metallicRoughness.png"
    },
    {
      "uri": "textures/phong1_normal.png"
    }
  ],
  "materials": [
    {
      "doubleSided": true,
      "name": "phong1",
      "normalTexture": {
        "index": 2
      },
      "occlusionTexture": {
        "index": 1
      },
      "pbrMetallicRoughness": {
        "baseColorTexture": {
          "index": 0
        },
        "metallicRoughnessTexture": {
          "index": 1
        }
      }
    }
  ],
  "meshes": [
    {
      "name": "b_low_phong1_0",
      "primitives": [
        {
          "attributes": {
            "NORMAL": 1,
            "POSITION": 0,
            "TANGENT": 2,
            "TEXCOORD_0": 3
          },
          "indices": 4,
          "material": 0,
          "mode": 4
        }
      ]
    },
    {
      "name": "a_low_phong1_0",
      "primitives": [
        {
          "attributes": {
            "NORMAL": 6,
            "POSITION": 5,
            "TANGENT": 7,
            "TEXCOORD_0": 8
          },
          "indices": 9,
          "material": 0,
          "mode": 4
        }
      ]
    },
    {
      "name": "c_low_phong1_0",
      "primitives": [
        {
          "attributes": {
            "NORMAL": 11,
            "POSITION": 10,
            "TANGENT": 12,
            "TEXCOORD_0": 13
          },
          "indices": 14,
          "material": 0,
          "mode": 4
        }
      ]
    }
  ],
  "nodes": [
    {
      "children": [
        1
      ],
      "matrix": [
        1.0,
        0.0,
        0.0,
        0.0,
        0.0,
        2.220446049250313e-16,
        -1.0,
        0.0,
        0.0,
        1.0,
        2.220446049250313e-16,
        0.0,
        0.0,
        0.0,
        0.0,
        1.0
      ],
      "name": "Sketchfab_model"
    },
    {
      "children": [
        2
      ],
      "matrix": [
        1.0,
        0.0,
        0.0,
        0.0,
        0.0,
        0.0,
        1.0,
        0.0,
        0.0,
        -1.0,
        0.0,
        0.0,
        0.0,
        0.0,
        0.0,
        1.0
      ],
      "name": "lp.fbx"
    },
    {
      "children": [
        3,
        5,
        7
      ],
      "name": "RootNode"
    },
    {
      "children": [
        4
      ],
      "name": "b_low"
    },
    {
      "mesh": 0,
      "name": "b_low_phong1_0"
    },
    {
      "children": [
        6
      ],
      "name": "a_low"
    },
    {
      "mesh": 1,
      "name": "a_low_phong1_0"
    },
    {
      "children": [
        8
      ],
      "name": "c_low"
    },
    {
      "mesh": 2,
      "name": "c_low_phong1_0"
    }
  ],
  "samplers": [
    {
      "magFilter": 9729,
      "minFilter": 9987,
      "wrapS": 10497,
      "wrapT": 10497
    }
  ],
  "scene": 0,
  "scenes": [
    {
      "name": "Sketchfab_Scene",
      "nodes": [
        0
      ]
    }
  ],
  "textures": [
    {
      "sampler": 0,
      "source": 0
    },
    {
      "sampler": 0,
      "source": 1
    },
    {
      "sampler": 0,
      "source": 2
    }
  ]
}
