{
  "accessors": [
    {
      "bufferView": 2,
      "componentType": 5126,
      "count": 5776,
      "max": [
        0.12119531631469727,
        0.2173871248960495,
        0.09527751058340073
      ],
      "min": [
        -0.12119530886411667,
        -7.450580152834618e-09,
        -0.09527751803398132
      ],
      "type": "VEC3"
    },
    {
      "bufferView": 2,
      "byteOffset": 69312,
      "componentType": 5126,
      "count": 5776,
      "max": [
        0.9987755417823792,
        0.9997735023498535,
        0.9999468922615051
      ],
      "min": [
        -0.9907718896865845,
        -0.9936637878417969,
        -0.9873260855674744
      ],
      "type": "VEC3"
    },
    {
      "bufferView": 3,
      "componentType": 5126,
      "count": 5776,
      "max": [
        0.9998884201049805,
        0.9995263814926147,
        0.9989736080169678,
        1.0
      ],
      "min": [
        -0.9990540742874146,
        -0.9999306201934814,
        -0.9967010617256165,
        -1.0
      ],
      "type": "VEC4"
    },
    {
      "bufferView": 1,
      "componentType": 5126,
      "count": 5776,
      "max": [
        0.9997586607933044,
        0.9998461604118347
      ],
      "min": [
        0.0001248353801202029,
        0.0032637715339660645
      ],
      "type": "VEC2"
    },
    {
      "bufferView": 1,
      "byteOffset": 46208,
      "componentType": 5126,
      "count": 5776,
      "max": [
        0.9997586607933044,
        0.9998461604118347
      ],
      "min": [
        0.0001248353801202029,
        0.0032637715339660645
      ],
      "type": "VEC2"
    },
    {
      "bufferView": 1,
      "byteOffset": 92416,
      "componentType": 5126,
      "count": 5776,
      "max": [
        0.9997586607933044,
        0.9998461604118347
      ],
      "min": [
        0.0001248353801202029,
        0.0032637715339660645
      ],
      "type": "VEC2"
    },
    {
      "bufferView": 0,
      "componentType": 5125,
      "count": 27771,
      "type": "SCALAR"
    }
  ],
  "asset": {
    "extras": {
      "author": "kathinsonad (https://sketchfab.com/kathinsonad)",
      "license": "CC-BY-4.0 (http://creativecommons.org/licenses/by/4.0/)",
      "source": "https://sketchfab.com/3d-models/future-10-bell-of-service-00f700aa36804996b9ee77bc53e80c75",
      "title": "Future #10: Bell of Service"
    },
    "generator": "Sketchfab-16.74.0",
    "version": "2.0"
  },
  "bufferViews": [
    {
      "buffer": 0,
      "byteLength": 111084,
      "name": "floatBufferViews",
      "target": 34963
    },
    {
      "buffer": 0,
      "byteLength": 138624,
      "byteOffset": 111084,
      "byteStride": 8,
      "name": "floatBufferViews",
      "target": 34962
    },
    {
      "buffer": 0,
      "byteLength": 138624,
      "byteOffset": 249708,
      "byteStride": 12,
      "name": "floatBufferViews",
      "target": 34962
    },
    {
      "buffer": 0,
      "byteLength": 92416,
      "byteOffset": 388332,
      "byteStride": 16,
      "name": "floatBufferViews",
      "target": 34962
    }
  ],
  "buffers": [
    {
      "byteLength": 480748,
      "uri": "scene.bin"
    }
  ],
  "images": [
    {
      "uri": "textures/material_0_baseColor.jpeg"
    },
    {
      "uri": "textures/material_0_metallicRoughness.png"
    },
    {
      "uri": "textures/material_0_normal.jpeg"
    }
  ],
  "materials": [
    {
      "name": "material_0",
      "normalTexture": {
        "index": 2
      },
      "occlusionTexture": {
        "index": 1
      },
      "pbrMetallicRoughness": {
        "baseColorTexture": {
          "index": 0
        },
        "metallicFactor": 0.0,
        "metallicRoughnessTexture": {
          "index": 1
        }
      }
    }
  ],
  "meshes": [
    {
      "name": "Object_0",
      "primitives": [
        {
          "attributes": {
            "NORMAL": 1,
            "POSITION": 0,
            "TANGENT": 2,
            "TEXCOORD_0": 3,
            "TEXCOORD_1": 4,
            "TEXCOORD_2": 5
          },
          "indices": 6,
          "material": 0,
          "mode": 4
        }
      ]
    }
  ],
  "nodes": [
    {
      "children": [
        1
      ],
      "matrix": [
        1.0,
        0.0,
        0.0,
        0.0,
        0.0,
        2.220446049250313e-16,
        -1.0,
        0.0,
        0.0,
        1.0,
        2.220446049250313e-16,
        0.0,
        0.0,
        0.0,
        0.0,
        1.0
      ],
      "name": "Sketchfab_model"
    },
    {
      "children": [
        2
      ],
      "name": "root"
    },
    {
      "children": [
        3
      ],
      "matrix": [
        1.0,
        0.0,
        0.0,
        0.0,
        0.0,
        2.220446049250313e-16,
        1.0,
        0.0,
        0.0,
        -1.0,
        2.220446049250313e-16,
        0.0,
        0.0,
        0.0,
        0.0,
        1.0
      ],
      "name": "GLTF_SceneRootNode"
    },
    {
      "children": [
        4
      ],
      "name": "_0"
    },
    {
      "mesh": 0,
      "name": "Object_4"
    }
  ],
  "samplers": [
    {
      "magFilter": 9729,
      "minFilter": 9729,
      "wrapS": 10497,
      "wrapT": 10497
    }
  ],
  "scene": 0,
  "scenes": [
    {
      "name": "Sketchfab_Scene",
      "nodes": [
        0
      ]
    }
  ],
  "textures": [
    {
      "sampler": 0,
      "source": 0
    },
    {
      "sampler": 0,
      "source": 1
    },
    {
      "sampler": 0,
      "source": 2
    }
  ]
}
