{
  "accessors": [
    {
      "bufferView": 2,
      "componentType": 5126,
      "count": 1002,
      "max": [
        -721.6412353515625,
        90.12185668945313,
        30.244548797607422
      ],
      "min": [
        -730.2760009765625,
        83.80616760253906,
        23.943927764892578
      ],
      "type": "VEC3"
    },
    {
      "bufferView": 2,
      "byteOffset": 12024,
      "componentType": 5126,
      "count": 1002,
      "max": [
        0.9998340010643005,
        1.0,
        0.9962604641914368
      ],
      "min": [
        -0.9998340010643005,
        -1.0,
        -0.9969311356544495
      ],
      "type": "VEC3"
    },
    {
      "bufferView": 3,
      "componentType": 5126,
      "count": 1002,
      "max": [
        0.9998363852500916,
        0.9999862313270569,
        0.9960106611251831,
        1.0
      ],
      "min": [
        -0.9967945218086243,
        -1.0,
        -0.9965071678161621,
        1.0
      ],
      "type": "VEC4"
    },
    {
      "bufferView": 1,
      "componentType": 5126,
      "count": 1002,
      "max": [
        0.9949100017547607,
        0.9971659779548645
      ],
      "min": [
        0.002827000105753541,
        0.002833999926224351
      ],
      "type": "VEC2"
    },
    {
      "bufferView": 0,
      "componentType": 5125,
      "count": 4992,
      "type": "SCALAR"
    }
  ],
  "asset": {
    "extras": {
      "author": "Allan-Jay Branscombe (https://sketchfab.com/AllanJayBranscombe)",
      "license": "SKETCHFAB Standard (https://sketchfab.com/licenses)",
      "source": "https://sketchfab.com/3d-models/game-ready-used-coffee-mug-f8ac4d8c789b4895a6ff5c0ed676e29e",
      "title": "Game Ready - Used Coffee Mug"
    },
    "generator": "Sketchfab-15.55.0",
    "version": "2.0"
  },
  "bufferViews": [
    {
      "buffer": 0,
      "byteLength": 19968,
      "name": "floatBufferViews",
      "target": 34963
    },
    {
      "buffer": 0,
      "byteLength": 8016,
      "byteOffset": 19968,
      "byteStride": 8,
      "name": "floatBufferViews",
      "target": 34962
    },
    {
      "buffer": 0,
      "byteLength": 24048,
      "byteOffset": 27984,
      "byteStride": 12,
      "name": "floatBufferViews",
      "target": 34962
    },
    {
      "buffer": 0,
      "byteLength": 16032,
      "byteOffset": 52032,
      "byteStride": 16,
      "name": "floatBufferViews",
      "target": 34962
    }
  ],
  "buffers": [
    {
      "byteLength": 68064,
      "uri": "scene.bin"
    }
  ],
  "images": [
    {
      "uri": "textures/M_Coffee_Mug_baseColor.jpeg"
    },
    {
      "uri": "textures/M_Coffee_Mug_metallicRoughness.png"
    },
    {
      "uri": "textures/M_Coffee_Mug_normal.png"
    }
  ],
  "materials": [
    {
      "doubleSided": true,
      "name": "M_Coffee_Mug",
      "normalTexture": {
        "index": 2
      },
      "occlusionTexture": {
        "index": 1
      },
      "pbrMetallicRoughness": {
        "baseColorTexture": {
          "index": 0
        },
        "metallicRoughnessTexture": {
          "index": 1
        }
      }
    }
  ],
  "meshes": [
    {
      "name": "defaultMaterial",
      "primitives": [
        {
          "attributes": {
            "NORMAL": 1,
            "POSITION": 0,
            "TANGENT": 2,
            "TEXCOORD_0": 3
          },
          "indices": 4,
          "material": 0,
          "mode": 4
        }
      ]
    }
  ],
  "nodes": [
    {
      "children": [
        1
      ],
      "matrix": [
        1.0,
        0.0,
        0.0,
        0.0,
        0.0,
        2.220446049250313e-16,
        -1.0,
        0.0,
        0.0,
        1.0,
        2.220446049250313e-16,
        0.0,
        0.0,
        0.0,
        0.0,
        1.0
      ],
      "name": "Sketchfab_model"
    },
    {
      "children": [
        2
      ],
      "matrix": [
        1.0,
        0.0,
        0.0,
        0.0,
        0.0,
        -4.371139006309477e-08,
        0.999999999999999,
        0.0,
        0.0,
        -0.999999999999999,
        -4.371139006309477e-08,
        0.0,
        0.0,
        0.0,
        0.0,
        1.0
      ],
      "name": "Collada visual scene group"
    },
    {
      "children": [
        3
      ],
      "matrix": [
        1.0,
        0.0,
        0.0,
        0.0,
        0.0,
        1.0,
        0.0,
        0.0,
        0.0,
        0.0,
        1.0,
        0.0,
        727.043823,
        -83.857162,
        -27.094242,
        1.0
      ],
      "name": "SM_Coffee_Mug"
    },
    {
      "mesh": 0,
      "name": "defaultMaterial"
    }
  ],
  "samplers": [
    {
      "magFilter": 9729,
      "minFilter": 9987,
      "wrapS": 10497,
      "wrapT": 10497
    }
  ],
  "scene": 0,
  "scenes": [
    {
      "name": "Sketchfab_Scene",
      "nodes": [
        0
      ]
    }
  ],
  "textures": [
    {
      "sampler": 0,
      "source": 0
    },
    {
      "sampler": 0,
      "source": 1
    },
    {
      "sampler": 0,
      "source": 2
    }
  ]
}
