{
  "accessors": [
    {
      "bufferView": 2,
      "componentType": 5126,
      "count": 10554,
      "max": [
        286.4166259765625,
        41.65757751464844,
        1423.516357421875
      ],
      "min": [
        -279.1159362792969,
        -38.32805633544922,
        -395.99560546875
      ],
      "type": "VEC3"
    },
    {
      "bufferView": 2,
      "byteOffset": 126648,
      "componentType": 5126,
      "count": 10554,
      "max": [
        1.0,
        1.0,
        0.9999834895133972
      ],
      "min": [
        -1.0,
        -1.0,
        -0.9999809265136719
      ],
      "type": "VEC3"
    },
    {
      "bufferView": 3,
      "componentType": 5126,
      "count": 10554,
      "max": [
        1.0,
        1.0,
        1.0,
        1.0
      ],
      "min": [
        -0.875076949596405,
        -1.0,
        -1.0,
        1.0
      ],
      "type": "VEC4"
    },
    {
      "bufferView": 1,
      "componentType": 5126,
      "count": 10554,
      "max": [
        0.9827783703804016,
        0.992993175983429
      ],
      "min": [
        0.007006785832345486,
        0.007006712257862091
      ],
      "type": "VEC2"
    },
    {
      "bufferView": 0,
      "componentType": 5125,
      "count": 48456,
      "type": "SCALAR"
    }
  ],
  "asset": {
    "extras": {
      "author": "AspectStudios (https://sketchfab.com/AspectStudio)",
      "license": "CC-BY-4.0 (http://creativecommons.org/licenses/by/4.0/)",
      "source": "https://sketchfab.com/3d-models/key-be3361128c8e47f8a46e95ba38588c29",
      "title": "Key"
    },
    "generator": "Sketchfab-16.72.0",
    "version": "2.0"
  },
  "bufferViews": [
    {
      "buffer": 0,
      "byteLength": 193824,
      "name": "floatBufferViews",
      "target": 34963
    },
    {
      "buffer": 0,
      "byteLength": 84432,
      "byteOffset": 193824,
      "byteStride": 8,
      "name": "floatBufferViews",
      "target": 34962
    },
    {
      "buffer": 0,
      "byteLength": 253296,
      "byteOffset": 278256,
      "byteStride": 12,
      "name": "floatBufferViews",
      "target": 34962
    },
    {
      "buffer": 0,
      "byteLength": 168864,
      "byteOffset": 531552,
      "byteStride": 16,
      "name": "floatBufferViews",
      "target": 34962
    }
  ],
  "buffers": [
    {
      "byteLength": 700416,
      "uri": "scene.bin"
    }
  ],
  "extensionsUsed": [
    "KHR_materials_specular"
  ],
  "images": [
    {
      "uri": "textures/Material.002_baseColor.jpeg"
    },
    {
      "uri": "textures/Material.002_metallicRoughness.png"
    },
    {
      "uri": "textures/Material.002_normal.png"
    }
  ],
  "materials": [
    {
      "doubleSided": true,
      "extensions": {
        "KHR_materials_specular": {
          "specularColorFactor": [
            1.0,
            1.0,
            1.0
          ],
          "specularFactor": 0.0
        }
      },
      "name": "Material.002",
      "normalTexture": {
        "index": 2,
        "scale": 0.2480082754002423
      },
      "pbrMetallicRoughness": {
        "baseColorTexture": {
          "index": 0
        },
        "metallicFactor": 0.04665247970925634,
        "metallicRoughnessTexture": {
          "index": 1
        },
        "roughnessFactor": 0.15402602830531453
      }
    }
  ],
  "meshes": [
    {
      "name": "Key.001_Material.002_0",
      "primitives": [
        {
          "attributes": {
            "NORMAL": 1,
            "POSITION": 0,
            "TANGENT": 2,
            "TEXCOORD_0": 3
          },
          "indices": 4,
          "material": 0,
          "mode": 4
        }
      ]
    }
  ],
  "nodes": [
    {
      "children": [
        1
      ],
      "matrix": [
        1.0,
        0.0,
        0.0,
        0.0,
        0.0,
        2.220446049250313e-16,
        -1.0,
        0.0,
        0.0,
        1.0,
        2.220446049250313e-16,
        0.0,
        0.0,
        0.0,
        0.0,
        1.0
      ],
      "name": "Sketchfab_model"
    },
    {
      "children": [
        2
      ],
      "matrix": [
        0.009999999776482582,
        0.0,
        0.0,
        0.0,
        0.0,
        0.0,
        0.009999999776482582,
        0.0,
        0.0,
        -0.009999999776482582,
        0.0,
        0.0,
        0.0,
        0.0,
        0.0,
        1.0
      ],
      "name": "c462292e734c44ed909c290eb0417ae1.fbx"
    },
    {
      "children": [
        3
      ],
      "name": "RootNode"
    },
    {
      "children": [
        4
      ],
      "matrix": [
        0.2139174342155448,
        1.870125674778314e-08,
        -0.0,
        -0.0,
        7.312370998117904e-15,
        -8.364377137726757e-08,
        -0.5134018063545158,
        -0.0,
        1.8701256747782893e-08,
        -0.21391743421554196,
        3.4851573811152525e-08,
        -0.0,
        0.0,
        304.1627502441406,
        0.0,
        1.0
      ],
      "name": "Key.001"
    },
    {
      "mesh": 0,
      "name": "Key.001_Material.002_0"
    }
  ],
  "samplers": [
    {
      "magFilter": 9729,
      "minFilter": 9987,
      "wrapS": 10497,
      "wrapT": 10497
    }
  ],
  "scene": 0,
  "scenes": [
    {
      "name": "Sketchfab_Scene",
      "nodes": [
        0
      ]
    }
  ],
  "textures": [
    {
      "sampler": 0,
      "source": 0
    },
    {
      "sampler": 0,
      "source": 1
    },
    {
      "sampler": 0,
      "source": 2
    }
  ]
}
