{
  "accessors": [
    {
      "bufferView": 2,
      "componentType": 5126,
      "count": 3726,
      "max": [
        13.920960426330566,
        4.145233631134033,
        13.959770202636719
      ],
      "min": [
        10.582462310791016,
        3.1573894023895264,
        10.230805397033691
      ],
      "type": "VEC3"
    },
    {
      "bufferView": 2,
      "byteOffset": 44712,
      "componentType": 5126,
      "count": 3726,
      "max": [
        0.9978829622268677,
        0.999914288520813,
        0.999285101890564
      ],
      "min": [
        -0.9935376644134521,
        -1.0,
        -0.9996283650398254
      ],
      "type": "VEC3"
    },
    {
      "bufferView": 3,
      "componentType": 5126,
      "count": 3726,
      "max": [
        0.9997386336326599,
        0.9946096539497375,
        0.9999313950538635,
        1.0
      ],
      "min": [
        -0.7398640513420105,
        -0.9895293712615967,
        -0.9749822020530701,
        1.0
      ],
      "type": "VEC4"
    },
    {
      "bufferView": 1,
      "componentType": 5126,
      "count": 3726,
      "max": [
        0.9944455027580261,
        0.9671732187271118
      ],
      "min": [
        0.008453965187072754,
        0.06313690543174744
      ],
      "type": "VEC2"
    },
    {
      "bufferView": 0,
      "componentType": 5125,
      "count": 20544,
      "type": "SCALAR"
    }
  ],
  "asset": {
    "extras": {
      "author": "SUDIPTO SHOW (https://sketchfab.com/sudiptoshow2002)",
      "license": "CC-BY-4.0 (http://creativecommons.org/licenses/by/4.0/)",
      "source": "https://sketchfab.com/3d-models/pillow-ceb1d46766dd411380da1ed71592115b",
      "title": "Pillow"
    },
    "generator": "Sketchfab-15.22.0",
    "version": "2.0"
  },
  "bufferViews": [
    {
      "buffer": 0,
      "byteLength": 82176,
      "name": "floatBufferViews",
      "target": 34963
    },
    {
      "buffer": 0,
      "byteLength": 29808,
      "byteOffset": 82176,
      "byteStride": 8,
      "name": "floatBufferViews",
      "target": 34962
    },
    {
      "buffer": 0,
      "byteLength": 89424,
      "byteOffset": 111984,
      "byteStride": 12,
      "name": "floatBufferViews",
      "target": 34962
    },
    {
      "buffer": 0,
      "byteLength": 59616,
      "byteOffset": 201408,
      "byteStride": 16,
      "name": "floatBufferViews",
      "target": 34962
    }
  ],
  "buffers": [
    {
      "byteLength": 261024,
      "uri": "scene.bin"
    }
  ],
  "images": [
    {
      "uri": "textures/Pillow_Mat_baseColor.png"
    },
    {
      "uri": "textures/Pillow_Mat_metallicRoughness.png"
    },
    {
      "uri": "textures/Pillow_Mat_normal.png"
    }
  ],
  "materials": [
    {
      "doubleSided": true,
      "name": "Pillow_Mat",
      "normalTexture": {
        "index": 2
      },
      "pbrMetallicRoughness": {
        "baseColorTexture": {
          "index": 0
        },
        "metallicFactor": 0.0,
        "metallicRoughnessTexture": {
          "index": 1
        }
      }
    }
  ],
  "meshes": [
    {
      "name": "Pillow_Pillow_Mat_0",
      "primitives": [
        {
          "attributes": {
            "NORMAL": 1,
            "POSITION": 0,
            "TANGENT": 2,
            "TEXCOORD_0": 3
          },
          "indices": 4,
          "material": 0,
          "mode": 4
        }
      ]
    }
  ],
  "nodes": [
    {
      "children": [
        1
      ],
      "matrix": [
        23.291236877441406,
        0.0,
        0.0,
        0.0,
        0.0,
        5.171693490666797e-15,
        -23.291236877441406,
        0.0,
        0.0,
        23.291236877441406,
        5.171693490666797e-15,
        0.0,
        0.0,
        0.0,
        0.0,
        1.0
      ],
      "name": "Sketchfab_model"
    },
    {
      "children": [
        2
      ],
      "matrix": [
        0.009999999776482582,
        0.0,
        0.0,
        0.0,
        0.0,
        0.0,
        0.009999999776482582,
        0.0,
        0.0,
        -0.009999999776482582,
        0.0,
        0.0,
        0.0,
        0.0,
        0.0,
        1.0
      ],
      "name": "Pillow.fbx"
    },
    {
      "children": [
        3
      ],
      "name": "RootNode"
    },
    {
      "children": [
        4
      ],
      "name": "Pillows"
    },
    {
      "children": [
        5
      ],
      "name": "Pillow"
    },
    {
      "mesh": 0,
      "name": "Pillow_Pillow_Mat_0"
    }
  ],
  "samplers": [
    {
      "magFilter": 9729,
      "minFilter": 9987,
      "wrapS": 10497,
      "wrapT": 10497
    }
  ],
  "scene": 0,
  "scenes": [
    {
      "name": "Sketchfab_Scene",
      "nodes": [
        0
      ]
    }
  ],
  "textures": [
    {
      "sampler": 0,
      "source": 0
    },
    {
      "sampler": 0,
      "source": 1
    },
    {
      "sampler": 0,
      "source": 2
    }
  ]
}
